<?xml version="1.0" standalone="no"?>
<svg version="1.0" xmlns="http://www.w3.org/2000/svg"
 width="512.000000pt" height="512.000000pt" viewBox="0 0 512.000000 512.000000"
 preserveAspectRatio="xMidYMid meet">

<g transform="translate(0.000000,512.000000) scale(0.100000,-0.100000)"
fill="#000000" stroke="none">
<path d="M3295 5114 c-442 -48 -820 -286 -1048 -659 -35 -56 -123 -246 -769
-1639 -234 -504 -240 -520 -240 -581 1 -75 18 -119 69 -175 35 -39 42 -59 92
-244 l54 -201 4 -252 4 -253 -56 0 c-63 0 -89 -10 -107 -43 -6 -12 -46 -159
-88 -327 l-76 -305 -281 -5 c-281 -5 -281 -5 -307 -29 -35 -33 -35 -83 -1
-116 l24 -25 1059 0 1059 0 21 23 c14 15 22 36 22 58 -1 69 -39 89 -175 89
l-94 0 -10 38 c-6 20 -41 163 -80 317 -81 323 -82 325 -177 325 l-54 0 0 81
c0 61 3 80 12 76 7 -3 203 -93 436 -201 233 -108 434 -196 448 -196 14 0 48
12 76 26 55 28 68 23 68 -23 0 -18 -6 -23 -25 -23 -56 0 -67 -25 -151 -363
l-79 -317 -273 0 c-189 0 -280 -4 -295 -12 -32 -17 -46 -39 -46 -73 0 -34 14
-56 46 -73 16 -9 353 -12 1323 -12 l1302 0 29 29 c38 38 38 74 0 112 l-29 29
-365 0 -365 0 -78 318 c-61 244 -84 322 -101 339 -19 20 -32 23 -102 23 -44 0
-82 4 -85 8 -7 12 -96 412 -96 434 0 16 164 375 667 1458 250 537 275 601 308
792 19 107 19 308 0 426 -15 94 -63 252 -105 348 l-22 50 116 148 c94 120 116
153 116 180 0 27 -19 56 -115 168 -124 147 -157 178 -188 178 -12 0 -95 -41
-184 -91 l-164 -91 -62 40 c-144 94 -317 164 -489 197 -83 16 -298 27 -373 19z
m307 -663 c414 -192 775 -359 803 -372 47 -23 50 -27 62 -79 7 -30 13 -117 13
-192 1 -231 -35 -380 -156 -642 l-67 -144 -61 28 c-243 109 -1973 914 -1980
921 -10 9 101 256 168 374 99 177 245 327 416 428 25 15 46 27 47 27 2 0 341
-157 755 -349z m-577 -1423 c550 -256 1028 -479 1062 -496 l62 -32 -31 -70
c-17 -38 -37 -70 -44 -70 -7 0 -98 39 -201 87 -115 53 -200 86 -219 86 -29 -1
-32 2 -43 50 -28 123 -113 168 -258 137 l-49 -11 -349 162 c-225 105 -362 163
-383 163 -19 0 -40 -8 -52 -19 -32 -32 -420 -882 -420 -919 0 -21 8 -40 23
-53 12 -11 200 -103 416 -203 317 -146 402 -181 428 -178 27 3 35 0 39 -16 26
-105 50 -226 44 -226 -4 0 -74 31 -156 69 -1159 536 -1452 675 -1466 692 -10
12 -18 34 -18 50 0 36 29 109 43 109 6 0 94 -39 196 -86 217 -100 237 -105
274 -73 32 29 427 879 427 920 0 15 -8 36 -17 48 -10 11 -105 61 -211 110
-106 49 -195 91 -199 94 -3 3 10 38 28 77 27 60 36 71 53 67 12 -3 471 -214
1021 -469z m-1022 95 c78 -37 143 -68 144 -68 2 -1 -70 -157 -158 -347 l-161
-346 -138 63 c-76 35 -145 67 -153 72 -14 8 19 82 269 616 20 42 40 77 45 77
5 0 73 -30 152 -67z m796 -369 c91 -42 180 -83 196 -92 l30 -15 -85 -19 c-104
-23 -148 -45 -177 -87 -42 -61 -40 -84 25 -375 33 -149 59 -272 58 -274 -7 -7
-541 250 -540 261 2 23 308 677 318 677 5 0 84 -34 175 -76z m645 -211 c3 -10
28 -124 56 -253 28 -129 53 -241 55 -247 2 -7 -11 -19 -30 -27 -38 -16 -55
-42 -55 -83 0 -15 52 -261 116 -546 64 -285 114 -520 111 -523 -3 -3 -79 -8
-170 -11 -156 -6 -165 -5 -170 13 -3 10 -54 237 -113 504 -98 441 -111 488
-135 513 -18 18 -38 27 -58 27 -17 0 -31 3 -31 8 0 4 -27 123 -59 265 -39 174
-55 260 -47 262 6 2 115 26 241 54 127 27 239 52 250 54 11 3 23 5 27 6 4 0 9
-7 12 -16z m381 -264 c47 -22 85 -43 85 -48 0 -10 -210 -464 -220 -474 -4 -5
-13 21 -20 57 l-12 65 32 40 c46 56 48 103 16 250 -21 94 -25 125 -16 141 13
25 18 24 135 -31z m-1786 -1376 c6 -21 34 -136 64 -255 l55 -218 -423 0 -423
0 55 218 c30 119 58 234 64 255 l10 37 294 0 294 0 10 -37z m1841 -453 c31
-124 60 -237 63 -252 l7 -28 -420 0 c-371 0 -420 2 -420 15 0 13 72 311 111
458 l10 37 296 -2 297 -3 56 -225z"/>
<path d="M2928 4511 c-177 -58 -245 -259 -135 -403 72 -95 207 -126 315 -72
190 95 188 368 -4 459 -42 20 -137 28 -176 16z"/>
<path d="M3025 3905 c-47 -46 -24 -125 42 -141 33 -9 72 12 92 47 44 80 -69
160 -134 94z"/>
<path d="M3190 2280 c-45 -45 -33 -112 24 -135 85 -36 156 66 91 130 -31 31
-86 34 -115 5z"/>
<path d="M153 423 c-27 -5 -63 -48 -63 -75 0 -27 26 -74 45 -82 9 -3 49 -6 89
-6 62 0 75 3 93 23 25 26 30 51 20 90 -12 46 -93 68 -184 50z"/>
</g>
</svg>
