<?xml version="1.0" standalone="no"?>
<svg version="1.0" xmlns="http://www.w3.org/2000/svg"
 width="900.000000pt" height="857.000000pt" viewBox="0 0 900.000000 857.000000"
 preserveAspectRatio="xMidYMid meet">

<g transform="translate(0.000000,857.000000) scale(0.100000,-0.100000)"
fill="#000000" stroke="none">
<path d="M3893 8145 c-29 -8 -70 -23 -91 -34 -39 -20 -110 -40 -215 -61 -54
-11 -59 -15 -96 -68 -21 -31 -54 -81 -74 -111 -21 -29 -37 -59 -37 -66 0 -8
-21 -44 -47 -82 -25 -37 -52 -88 -60 -113 -7 -24 -23 -64 -35 -88 -19 -40 -20
-50 -9 -94 14 -62 14 -104 0 -129 -9 -18 -17 -20 -73 -14 -76 8 -172 -13 -231
-52 -22 -15 -62 -51 -90 -81 -97 -105 -253 -196 -392 -227 -37 -9 -80 -20 -95
-26 -37 -15 -118 -103 -118 -129 0 -11 15 -36 33 -56 34 -37 53 -42 118 -29
26 5 120 -10 350 -55 306 -60 317 -62 429 -56 63 3 126 7 139 8 27 3 32 -3 77
-109 19 -46 43 -78 91 -123 35 -33 61 -65 58 -70 -3 -5 -40 -33 -83 -63 -133
-94 -128 -85 -168 -318 -19 -112 -38 -218 -40 -234 -7 -39 -21 -56 -65 -83
-21 -12 -47 -42 -63 -72 -15 -27 -50 -69 -78 -92 -27 -24 -59 -60 -69 -81 -25
-48 -38 -53 -93 -32 -34 13 -48 14 -65 5 -24 -12 -60 -85 -101 -205 -20 -57
-33 -81 -46 -83 -11 -2 -27 -13 -36 -25 -16 -21 -17 -21 -53 -4 -42 20 -38 23
-120 -90 -24 -34 -63 -74 -85 -88 -52 -33 -65 -54 -89 -152 -35 -138 -21 -156
19 -25 23 71 52 122 71 122 5 0 9 -18 9 -41 0 -24 4 -38 10 -34 6 3 10 16 10
28 1 36 35 100 95 181 59 78 76 87 111 61 29 -22 42 -18 46 13 3 23 8 27 33
27 27 0 30 4 36 40 8 55 65 197 89 223 23 25 73 29 115 10 31 -14 44 -4 77 62
16 31 35 51 63 66 26 13 53 41 77 76 21 31 54 69 73 84 20 15 40 35 45 45 6 9
26 117 45 240 33 211 39 238 49 228 6 -6 -99 -688 -108 -696 -3 -3 -6 8 -6 25
0 41 -19 42 -27 1 -4 -19 -14 -34 -29 -39 -38 -15 -44 -41 -44 -188 0 -106 -3
-142 -14 -151 -20 -17 -35 6 -42 65 -8 72 -22 101 -59 124 -45 28 -69 25 -105
-12 -35 -38 -52 -88 -82 -243 -12 -60 -23 -112 -24 -114 -2 -2 -21 4 -44 13
-62 25 -67 22 -76 -36 -11 -78 -7 -157 16 -303 11 -71 20 -149 20 -171 0 -46
-20 -73 -38 -52 -11 15 -47 144 -56 207 -4 24 -14 57 -24 75 -9 17 -21 69 -27
116 -10 85 -10 85 -40 88 -56 4 -60 -5 -59 -135 2 -193 66 -448 159 -633 45
-91 49 -121 11 -107 -39 15 -122 208 -168 389 -17 68 -34 126 -37 130 -10 11
-154 -23 -174 -40 -10 -9 -25 -31 -32 -48 -12 -29 -56 -66 -55 -47 1 4 14 33
30 63 34 62 37 95 14 128 -11 17 -25 22 -56 22 -39 0 -47 -6 -124 -82 -121
-122 -131 -179 -52 -307 59 -95 61 -96 92 -76 26 17 27 17 64 -9 49 -33 55
-33 86 6 19 24 26 29 31 18 3 -8 2 -113 -2 -234 -14 -379 0 -522 77 -821 51
-199 57 -232 75 -425 8 -90 20 -180 25 -200 22 -83 81 -447 110 -676 17 -137
40 -289 52 -339 29 -129 93 -290 126 -315 37 -30 45 -8 25 74 -10 40 -13 70
-7 75 5 5 89 -6 199 -25 169 -31 219 -45 204 -57 -15 -14 -261 -87 -290 -87
-53 0 -117 -38 -146 -87 l-25 -43 31 0 c20 0 43 -11 67 -32 l37 -33 194 -3
c178 -3 194 -5 188 -20 -19 -45 -18 -52 6 -52 13 0 116 -5 228 -11 225 -13
330 -5 424 32 58 23 86 19 134 -17 17 -13 36 -24 42 -24 31 0 168 54 205 80
l43 31 99 -17 c127 -23 157 -21 205 12 l40 27 261 -7 c144 -4 264 -8 266 -10
2 -2 -8 -31 -22 -65 -46 -108 -31 -214 40 -288 51 -54 76 -55 108 -6 35 57 55
69 126 83 120 23 123 23 175 -3 28 -14 75 -30 105 -37 63 -14 140 -51 160 -75
14 -17 82 -55 99 -55 6 0 18 26 27 58 9 34 26 66 41 80 26 23 29 24 162 17
138 -8 171 -16 205 -54 45 -50 88 -14 84 72 l-1 42 -4 -37 c-2 -21 -8 -38 -13
-38 -24 0 -41 82 -20 95 23 14 28 41 15 78 -15 42 -40 66 -64 60 -9 -2 -29 8
-46 22 l-30 26 55 -4 c40 -3 68 -12 104 -35 27 -18 64 -35 82 -38 38 -7 169
19 232 47 110 47 82 191 -66 346 l-67 69 -107 325 c-117 352 -159 501 -328
1154 -160 624 -208 860 -230 1129 -22 265 -28 305 -55 353 -13 25 -19 41 -12
36 89 -70 190 -143 197 -143 19 0 9 17 -40 65 -27 27 -50 54 -50 59 0 6 24
-13 53 -41 124 -121 272 -143 389 -58 57 42 88 98 88 159 0 68 -47 386 -76
509 -32 139 -84 467 -84 530 0 54 15 90 71 163 34 44 62 114 46 114 -3 0 -17
-20 -31 -44 -14 -24 -51 -67 -83 -95 l-56 -50 11 -122 c7 -66 34 -225 62 -352
53 -251 70 -364 70 -467 0 -141 -42 -262 -103 -301 -69 -43 -223 2 -346 102
-99 81 -208 246 -245 369 -16 52 -77 519 -75 577 l0 28 14 -30 c8 -16 37 -135
65 -264 28 -129 63 -266 77 -305 24 -69 83 -189 89 -183 2 1 -1 20 -6 42 -12
52 -53 396 -48 401 3 2 12 -42 22 -99 21 -119 75 -289 109 -344 34 -53 86 -97
141 -118 68 -26 92 -16 124 53 22 50 26 74 32 202 4 93 9 136 14 119 4 -14 3
-79 -2 -145 -11 -128 -36 -214 -77 -262 -20 -24 -30 -27 -80 -26 -51 0 -55 -1
-38 -14 37 -29 99 -52 141 -52 73 0 104 48 118 186 8 74 -5 172 -58 464 -43
234 -50 335 -34 468 7 67 7 72 -11 72 -10 0 -29 -7 -42 -16 -19 -14 -31 -15
-82 -5 -33 7 -99 27 -147 46 -48 18 -122 41 -166 49 -43 9 -93 23 -110 30 -75
31 -148 122 -162 201 -3 22 -17 66 -30 97 -32 77 -30 83 13 53 58 -39 127 -30
169 22 10 11 17 9 43 -13 17 -14 31 -33 31 -41 0 -26 -60 -73 -102 -79 -36 -6
-38 -8 -24 -22 14 -14 22 -14 61 -4 28 7 53 8 67 3 49 -19 98 -97 98 -154 0
-42 15 -50 66 -36 40 12 93 5 136 -17 15 -8 59 -18 99 -24 39 -6 78 -14 87
-19 21 -12 64 10 86 43 23 36 20 39 -16 20 -51 -26 -110 -22 -148 9 -17 15
-36 27 -41 27 -21 0 -49 42 -49 74 0 26 13 50 54 103 79 100 101 121 131 129
21 5 31 2 41 -10 8 -12 13 -13 16 -4 2 6 2 -29 0 -80 -3 -64 -1 -92 7 -92 7 0
11 27 12 78 1 71 2 74 12 42 l11 -35 6 45 5 45 23 -33 c17 -23 29 -31 42 -27
16 5 20 -1 25 -42 4 -26 10 -64 14 -83 l7 -35 18 34 c28 52 96 121 146 145 25
13 89 40 142 60 89 34 101 42 152 100 31 35 56 68 56 72 0 4 -12 25 -26 45
-17 25 -45 46 -87 65 -53 24 -75 28 -152 28 -82 0 -98 -3 -178 -37 -49 -21
-110 -41 -137 -44 -43 -5 -51 -3 -74 20 -17 17 -26 37 -26 56 0 46 66 202 113
268 34 47 41 66 42 103 0 92 -75 147 -190 138 -105 -9 -150 -41 -229 -163 -29
-44 -91 -120 -138 -169 -95 -99 -89 -97 -189 -51 l-54 25 48 -6 c46 -6 47 -6
47 21 0 45 -29 93 -79 129 -27 18 -57 51 -68 72 -11 22 -53 66 -95 100 -73 59
-79 62 -169 78 -52 10 -147 31 -211 47 -64 16 -132 29 -150 29 -35 0 -107 -30
-177 -74 -24 -15 -45 -26 -47 -24 -2 2 6 32 17 67 10 35 24 121 30 190 6 69
14 129 17 133 4 4 48 19 97 33 110 32 166 63 225 125 47 49 138 203 208 350
46 97 97 153 174 190 65 31 76 48 58 89 -22 54 -56 64 -194 59 -130 -5 -130
-5 -434 -123 -70 -27 -118 -38 -190 -45 -53 -4 -110 -13 -125 -19 -37 -14 -37
-14 -37 8 0 22 -45 61 -69 61 -12 -1 -8 -7 12 -23 19 -16 27 -32 27 -53 0 -37
9 -48 27 -33 10 9 13 8 13 -3 0 -12 9 -11 47 8 31 16 64 24 99 24 81 0 146 17
304 81 189 76 254 93 367 93 74 1 96 -2 109 -16 15 -15 16 -21 5 -44 -11 -25
-14 -26 -59 -18 -67 13 -154 8 -199 -11 -21 -9 -73 -37 -116 -62 -83 -48 -110
-53 -52 -9 39 30 46 56 15 56 -12 0 -71 -29 -133 -65 -62 -36 -120 -65 -129
-65 -28 0 -26 -23 4 -67 16 -24 31 -43 33 -43 2 0 -1 14 -6 32 -5 17 -8 33 -6
34 8 7 135 74 141 74 4 0 -17 -24 -48 -53 -31 -29 -56 -60 -56 -69 0 -17 -54
-68 -71 -68 -6 0 -20 23 -32 52 -25 61 -33 52 -13 -15 18 -59 7 -61 -17 -3
-27 67 -50 91 -27 28 29 -77 23 -95 -10 -31 -45 87 -65 92 -24 6 34 -73 40
-107 19 -114 -5 -1 -30 45 -54 102 -47 114 -63 134 -31 40 15 -44 20 -84 20
-168 0 -104 1 -109 18 -95 42 37 45 35 38 -29 l-7 -61 38 -22 38 -22 -49 -25
-49 -25 6 -46 c3 -26 9 -62 13 -81 7 -31 5 -34 -12 -26 -86 36 -102 39 -130
25 l-29 -14 41 -6 c52 -8 89 -32 109 -70 20 -39 1 -50 -33 -17 -31 29 -71 51
-79 43 -3 -2 11 -12 32 -20 28 -12 36 -20 33 -37 -6 -40 -31 -45 -74 -14 l-39
29 34 -37 c19 -20 32 -39 30 -42 -3 -2 -25 9 -50 26 -36 25 -39 26 -16 6 54
-51 18 -52 -48 -1 l-47 36 -32 -30 c-31 -29 -76 -58 -76 -48 0 3 20 24 45 47
53 49 53 61 0 25 -21 -15 -54 -30 -74 -35 -20 -5 -49 -12 -66 -16 l-30 -8 38
-15 c44 -17 47 -27 10 -36 -41 -11 -83 11 -83 43 0 14 -3 36 -6 49 -5 17 -2
22 12 22 13 0 8 6 -14 17 l-33 16 20 21 21 20 22 -21 c13 -11 33 -24 46 -28
26 -8 29 -22 5 -28 -11 -3 -7 -5 9 -6 39 -1 114 65 97 86 -18 20 1 33 31 20
21 -8 22 -11 7 -14 -30 -8 -7 -23 34 -23 34 0 47 7 81 40 31 30 49 40 73 40
17 0 40 7 51 15 18 15 17 16 -16 10 -19 -3 -65 -16 -102 -27 -59 -19 -72 -20
-105 -9 -32 10 -53 10 -121 -3 -95 -18 -134 -36 -174 -79 -18 -21 -28 -26 -28
-16 0 23 37 53 115 93 77 39 61 50 -25 16 -28 -11 -53 -20 -56 -20 -3 0 52 51
105 96 2 2 -3 6 -12 10 -11 4 -38 -11 -77 -42 -69 -54 -90 -55 -31 -1 74 67
197 110 243 86 17 -9 18 -13 7 -21 -11 -7 -11 -11 -1 -15 6 -2 12 -16 12 -29
0 -18 8 -27 32 -37 30 -12 34 -12 43 7 6 12 22 22 35 24 14 2 36 16 50 31 14
16 45 38 68 50 24 13 42 25 39 28 -3 3 -20 -2 -38 -11 -41 -21 -52 -20 -73 3
-16 18 -16 21 -1 50 18 35 7 41 -20 11 -10 -11 -24 -20 -32 -20 -11 0 -11 4
-3 20 14 27 4 25 -32 -5 -16 -14 -38 -25 -49 -25 -19 0 -19 2 6 43 37 65 31
67 -22 8 -44 -48 -57 -55 -162 -92 -63 -22 -115 -38 -116 -37 -1 2 -7 18 -14
35 -14 35 -31 35 -31 2 0 -11 -4 -17 -10 -14 -5 3 -10 27 -11 53 0 26 -4 56
-9 67 -6 17 -9 13 -15 -20 -4 -22 -13 -71 -21 -108 -8 -38 -14 -70 -14 -72 0
-2 -15 -19 -33 -39 l-33 -35 -33 59 c-39 72 -56 85 -36 29 9 -23 13 -44 10
-47 -7 -8 -65 120 -65 144 0 35 -38 145 -64 188 l-24 38 -17 -32 c-16 -32 -17
-32 -31 -11 -10 13 -26 21 -45 21 -21 0 -39 10 -60 32 -37 42 -37 29 2 -39 50
-87 16 -95 -71 -16 -22 19 -46 33 -55 31 -17 -3 -8 -18 67 -110 36 -46 12 -43
-54 6 -36 27 -71 46 -83 44 -18 -3 -20 -9 -17 -58 l4 -55 -31 29 c-25 24 -33
27 -46 16 -21 -18 -19 -40 8 -68 21 -23 21 -24 2 -20 -11 2 -29 20 -40 40
l-20 37 60 62 c102 105 235 216 296 249 32 17 61 35 64 41 8 12 -42 164 -59
178 -18 15 -212 -185 -280 -288 -79 -119 -124 -255 -113 -340 6 -48 -38 -135
-65 -128 -16 5 -16 3 -3 -16 17 -24 20 -77 6 -77 -6 0 -30 24 -55 53 -94 109
-98 113 -87 90 18 -36 13 -37 -18 -4 -34 37 -59 42 -37 9 21 -31 177 -173 191
-173 5 0 11 -15 13 -32 2 -18 1 -33 -3 -33 -3 0 -67 49 -142 110 -75 60 -139
107 -141 105 -3 -2 10 -21 29 -42 29 -34 31 -38 14 -42 -11 -2 -21 2 -23 7 -6
19 -43 62 -53 62 -5 0 2 -18 15 -39 l25 -39 -35 -36 c-38 -39 -34 -38 -293
-100 -147 -36 -194 -51 -229 -76 -57 -40 -105 -39 -110 2 -2 20 6 36 37 66 44
42 87 62 246 111 132 40 211 88 309 189 45 46 104 95 131 110 44 23 62 26 153
27 59 1 107 6 114 13 11 11 13 79 3 155 -6 39 -3 54 18 90 13 23 27 56 30 73
3 18 27 65 52 105 26 41 77 123 114 183 36 60 78 117 91 127 14 10 72 27 129
39 58 11 123 31 145 44 26 15 66 26 110 30 83 8 96 15 65 32 -30 17 -50 16
-116 -1z m-234 -477 c14 -25 14 -29 -4 -54 -30 -39 -159 -108 -190 -100 -14 4
-25 12 -25 19 0 7 32 48 71 91 63 68 75 77 103 74 21 -2 35 -11 45 -30z m1624
-259 c-74 -128 -177 -209 -265 -209 -57 0 -45 16 21 29 92 18 120 43 260 233
29 40 20 7 -16 -53z m-1426 -274 c19 -76 29 -133 23 -139 -5 -5 -21 0 -38 13
-27 19 -31 19 -34 4 -2 -11 -16 3 -42 43 -34 51 -40 68 -43 121 -2 63 4 76 42
86 55 14 58 10 92 -128z m1093 85 c0 -12 -40 -33 -48 -25 -4 4 2 13 12 21 23
16 36 18 36 4z m-1395 -40 c3 -5 -5 -15 -19 -22 -14 -6 -26 -15 -26 -19 0 -13
18 -20 25 -9 20 32 107 -30 152 -108 14 -26 47 -66 72 -90 l46 -42 -45 19
c-25 11 -57 22 -72 25 -17 4 -44 29 -78 71 l-51 66 -46 -7 c-40 -6 -45 -5 -40
10 4 9 2 16 -4 16 -19 0 -79 -29 -116 -56 l-38 -28 35 38 c19 21 49 47 65 57
42 27 18 23 -29 -4 -53 -30 -76 -64 -86 -128 l-9 -54 2 65 c4 93 24 117 139
169 99 43 113 47 123 31z m845 -216 c0 -14 -3 -15 -17 -3 -10 7 -20 15 -22 16
-2 2 5 3 17 3 14 0 22 -6 22 -16z m-856 -33 c11 -12 17 -23 15 -26 -8 -7 -48
24 -60 46 -9 18 -8 19 8 11 10 -6 27 -20 37 -31z m-132 -6 c19 -16 42 -25 63
-25 31 0 65 -21 65 -39 0 -11 -106 -51 -133 -51 -28 0 -41 9 -56 37 -17 33
-14 35 20 17 19 -9 41 -13 57 -9 l25 6 -44 45 c-47 48 -45 59 3 19z m210 -23
c-13 -2 -32 4 -43 14 -33 29 -21 35 24 12 37 -20 39 -23 19 -26z m438 13 c17
-9 30 -20 30 -24 0 -5 16 -30 35 -55 19 -26 35 -48 35 -51 0 -16 -45 26 -66
62 -24 41 -59 73 -79 73 -5 0 1 -9 14 -19 13 -10 20 -20 15 -23 -14 -8 -104
-20 -104 -13 0 3 15 14 33 25 41 26 15 25 -42 0 -50 -23 -55 -24 -45 -9 10 17
86 49 117 49 15 0 41 -7 57 -15z m-395 -65 c-3 -5 -20 -14 -38 -19 l-32 -9 32
-1 c39 -1 83 -20 83 -35 0 -6 -7 -20 -15 -31 -15 -19 -15 -19 -31 3 l-15 22
-50 -25 c-27 -14 -49 -21 -49 -15 0 5 18 19 41 30 23 12 38 24 35 27 -10 11
-71 -18 -103 -49 -18 -18 -33 -27 -33 -21 0 19 43 65 74 80 l31 14 -39 -6
c-36 -6 -38 -5 -27 9 23 27 152 52 136 26z m380 0 c3 -6 -5 -10 -19 -10 -37 0
-77 -18 -108 -48 -16 -14 -28 -21 -28 -16 0 12 46 57 75 72 25 14 72 15 80 2z
m73 -85 c30 -25 58 -45 63 -45 15 0 22 22 8 31 -7 4 -10 11 -6 16 13 12 42
-12 45 -39 4 -33 -11 -43 -88 -63 -113 -29 -127 -29 -141 -6 l-13 20 -23 -21
c-27 -25 -29 -43 -8 -52 21 -8 19 -26 -3 -26 -25 0 -62 28 -62 47 0 23 71 87
80 73 4 -6 10 8 13 32 3 23 4 44 2 46 -2 3 -21 -10 -41 -27 -21 -17 -40 -28
-43 -26 -8 8 32 46 69 66 57 30 86 24 148 -26z m-728 -8 c0 -36 -27 -67 -58
-66 -15 0 -21 3 -14 6 17 7 5 23 -17 23 -10 0 -26 10 -37 21 l-19 21 34 -7
c29 -6 33 -5 28 9 -5 13 1 16 38 16 40 0 45 -2 45 -23z m395 -10 c17 -13 17
-15 -1 -46 -42 -71 -133 -98 -208 -61 -51 24 -59 49 -24 74 25 18 38 13 31
-13 -4 -15 4 -21 45 -31 56 -13 72 -8 111 34 14 14 21 31 18 40 -8 20 3 20 28
3z m38 -104 c-7 -71 -52 -124 -118 -139 -29 -6 -29 -6 10 23 44 32 70 61 63
68 -2 2 -21 0 -42 -6 -51 -14 -69 -5 -26 13 20 8 48 31 63 52 40 51 56 48 50
-11z m512 -9 c56 -33 85 -60 85 -77 0 -30 -26 -23 -55 14 -45 57 -50 47 -9
-15 38 -58 38 -71 -6 -111 -22 -20 -22 -20 -36 0 -15 20 -15 20 -33 -4 -14
-19 -24 -22 -45 -17 -19 5 -26 3 -26 -9 0 -18 -12 -19 -29 -2 -10 10 -11 7 -6
-15 9 -36 -4 -35 -40 2 -37 38 -47 38 -33 0 14 -42 40 -54 83 -40 53 18 78 9
35 -12 -48 -24 -23 -22 42 2 52 19 80 41 126 94 24 28 45 30 49 5 2 -8 -13
-35 -32 -61 -28 -39 -52 -56 -128 -93 -104 -50 -150 -57 -168 -24 -13 25 -5
34 41 47 l35 10 -37 1 c-59 2 -67 9 -89 82 -18 59 -19 72 -8 86 20 24 73 43
117 43 37 0 40 2 51 40 7 22 9 45 6 51 -4 5 -4 17 -1 25 8 20 56 11 111 -22z
m168 22 c18 -8 46 -18 62 -22 21 -5 25 -8 12 -11 -20 -5 -114 24 -122 38 -9
13 12 11 48 -5z m1922 -20 c38 -16 70 -58 61 -81 -13 -34 -98 -2 -131 49 -29
44 3 59 70 32z m-945 -7 c28 -6 69 -25 93 -43 44 -34 105 -112 95 -122 -4 -3
-36 22 -72 55 -36 34 -77 66 -91 71 -39 15 -396 16 -520 2 -190 -22 -198 -27
-279 -167 -32 -57 -46 -73 -46 -56 0 28 50 124 90 173 58 70 96 80 334 88 333
11 342 11 396 -1z m839 -54 c30 -24 69 -49 85 -55 85 -31 97 -45 68 -81 -18
-21 -22 -22 -48 -10 -81 38 -94 42 -94 28 0 -15 69 -57 94 -57 9 0 16 -4 16
-9 0 -13 -27 -21 -73 -21 -35 0 -46 6 -84 45 -27 29 -43 39 -43 29 0 -26 54
-72 101 -84 37 -11 41 -14 24 -21 -11 -4 -47 -8 -79 -8 -72 -1 -136 31 -156
79 -11 28 -10 35 21 86 36 59 91 124 105 124 5 0 34 -20 63 -45z m-1115 9 c29
-11 17 -34 -77 -142 -149 -172 -191 -245 -217 -380 -13 -62 -42 -102 -76 -102
-23 0 -25 18 -8 121 35 221 127 413 216 450 18 7 48 24 67 36 34 23 65 28 95
17z m-1504 -29 c8 -16 -77 -17 -106 -2 -25 13 -23 14 37 12 35 0 66 -5 69 -10z
m1701 -11 c27 -13 227 -140 238 -150 14 -13 -13 -11 -68 6 -79 25 -163 25
-216 1 -57 -26 -104 -83 -171 -207 -58 -109 -79 -124 -49 -35 13 40 14 56 4
93 -12 43 -11 47 25 106 59 97 162 202 199 202 4 0 22 -7 38 -16z m-1595 -83
c-4 -28 -13 -62 -21 -77 -8 -16 -12 -39 -9 -51 8 -32 -8 -29 -29 6 -16 27 -16
29 3 46 11 10 25 37 31 59 14 58 17 66 25 66 4 0 4 -22 0 -49z m246 -101 c3
-34 2 -35 -33 -38 -20 -2 -52 4 -70 12 l-34 16 48 -6 c45 -5 47 -4 47 20 0 13
3 32 6 41 10 25 32 -2 36 -45z m698 35 c0 -3 -20 -45 -44 -94 -63 -124 -114
-278 -136 -406 -15 -91 -19 -161 -18 -405 0 -162 -3 -405 -6 -540 -8 -272 2
-365 22 -220 7 47 30 159 51 250 42 175 55 200 108 200 19 0 23 -4 19 -17 -10
-34 -77 -334 -91 -411 -8 -42 -23 -147 -34 -232 -19 -141 -23 -157 -47 -178
-42 -37 -58 -18 -88 105 -29 124 -46 316 -46 517 0 179 26 572 46 696 48 301
200 740 256 740 4 0 8 -2 8 -5z m1480 -92 c52 -20 103 -43 113 -51 20 -17 23
-69 6 -106 l-12 -25 -30 25 c-28 24 -99 64 -113 64 -3 0 17 -22 45 -48 28 -26
51 -53 51 -60 0 -6 -29 4 -65 24 -72 39 -90 31 -22 -10 25 -15 35 -25 25 -26
-26 0 -147 49 -193 79 -56 37 -57 65 -5 124 52 59 71 60 200 10z m-666 -8 c34
-29 38 -35 27 -49 -24 -28 -155 -13 -168 20 -3 8 5 26 17 40 34 35 76 31 124
-11z m-1474 -29 c0 -8 -7 -16 -15 -20 -16 -6 -40 28 -30 44 8 14 45 -6 45 -24z
m-70 14 c0 -6 -7 -13 -15 -16 -20 -8 -48 3 -40 16 8 13 55 13 55 0z m-305 -69
c-5 -4 -85 46 -85 54 0 2 20 -8 45 -22 24 -15 42 -29 40 -32z m2010 35 c13
-19 15 -39 9 -103 l-7 -78 -60 -59 c-33 -32 -80 -67 -104 -78 -41 -18 -44 -18
-80 -1 -46 22 -113 87 -113 111 0 9 -9 45 -21 78 -26 73 -21 114 14 114 12 0
56 -9 97 -20 41 -11 95 -20 119 -20 39 0 48 5 80 40 19 22 39 40 43 40 4 0 15
-11 23 -24z m-1203 -35 c-6 -74 -51 -112 -177 -150 -38 -12 -123 -47 -187 -79
-149 -72 -144 -61 -141 -336 2 -110 1 -197 -2 -194 -2 2 -14 87 -25 189 -17
145 -26 194 -45 234 -29 60 -26 71 6 16 12 -23 26 -41 30 -41 13 0 22 70 13
89 -5 10 -42 46 -81 80 -45 38 -73 70 -73 81 0 11 3 20 8 20 4 0 36 -25 72
-55 95 -80 116 -90 159 -76 20 6 54 22 76 36 l40 24 -76 1 c-47 0 -82 5 -94
14 -16 11 -6 14 81 18 117 6 206 38 319 117 82 57 101 60 97 12z m1378 -7 c8
-8 -33 -35 -49 -32 -7 2 -21 14 -30 27 l-16 24 45 -7 c24 -4 47 -9 50 -12z
m959 -63 c8 -5 18 -35 22 -68 7 -50 13 -62 46 -91 l38 -34 -29 -25 c-26 -22
-35 -24 -85 -18 -72 9 -137 37 -146 64 -9 29 -20 26 -38 -11 -20 -40 -13 -54
35 -79 22 -11 37 -23 34 -26 -11 -11 -56 8 -85 38 -28 27 -31 28 -31 10 0 -13
15 -29 43 -45 l42 -26 -31 0 c-37 0 -78 30 -101 73 -10 20 -18 27 -21 19 -8
-24 21 -63 66 -89 l44 -26 -23 -18 c-45 -35 -61 -35 -89 2 -14 18 -53 61 -87
94 -45 45 -63 71 -68 98 -4 21 -4 41 -1 44 4 4 38 2 77 -5 86 -15 120 -3 167
55 17 22 46 48 64 56 35 18 134 22 157 8z m-3204 -52 c52 -28 95 -55 95 -59 0
-5 -17 -23 -38 -39 -21 -17 -46 -45 -56 -63 -10 -18 -13 -27 -5 -20 7 6 15 12
18 12 4 0 6 -64 7 -143 0 -128 3 -148 26 -207 43 -111 43 -108 19 -82 -11 13
-26 43 -32 65 -7 23 -20 71 -30 106 -12 40 -19 95 -19 149 0 47 -2 83 -5 80
-3 -3 -12 -61 -20 -129 -7 -68 -19 -167 -26 -219 -10 -81 -10 -118 5 -248 10
-84 24 -172 32 -194 17 -48 13 -59 -8 -26 -8 13 -18 51 -22 86 -4 35 -16 102
-26 150 -24 105 -25 190 -5 347 8 66 15 147 14 180 0 55 -5 77 -39 160 -10 24
-10 42 -1 88 7 31 14 57 16 57 3 0 47 -23 100 -51z m3345 2 c35 -25 36 -45 3
-75 -35 -33 -56 -33 -82 0 -21 26 -28 83 -14 98 12 11 65 -2 93 -23z m-878
-36 c76 -65 118 -122 118 -158 0 -42 -70 -108 -180 -169 -149 -84 -189 -64
-205 104 -6 63 -3 76 24 118 18 26 50 -18 77 -108 14 -46 28 -82 30 -79 3 3
-7 49 -21 103 -45 169 -45 187 2 216 51 31 95 24 155 -27z m-625 -267 c40 -38
109 -288 153 -559 24 -151 25 -200 0 -69 -25 135 -53 233 -109 378 -61 158
-94 272 -78 272 6 0 21 -10 34 -22z m-2148 -85 l-2 -78 -7 55 c-7 50 -4 100 6
100 2 0 3 -35 3 -77z m-9 -848 c-6 -50 -9 -97 -6 -105 3 -8 12 -73 20 -145 17
-141 42 -251 110 -475 25 -80 50 -178 56 -218 6 -41 21 -100 35 -132 27 -63
38 -120 90 -440 49 -309 55 -364 61 -570 5 -159 2 -219 -21 -430 -21 -187 -29
-327 -35 -590 -9 -355 -17 -438 -60 -597 -33 -124 -29 -121 -144 -95 -126 29
-191 54 -265 102 -40 26 -63 48 -67 65 -3 14 -4 28 -1 31 2 3 34 -11 70 -31
56 -31 231 -85 274 -85 21 0 39 52 68 192 24 112 27 156 36 488 7 289 15 407
35 565 26 207 43 543 26 515 -5 -8 -26 -105 -46 -215 -20 -110 -68 -364 -106
-565 -79 -415 -96 -519 -106 -642 -5 -65 -11 -92 -26 -107 -39 -43 -39 -47 -7
279 25 258 149 1007 225 1358 29 137 30 168 4 347 -11 77 -26 194 -35 261 -17
140 -43 245 -117 482 l-53 172 -6 -272 c-4 -196 -12 -317 -27 -428 -26 -184
-27 -220 -7 -323 24 -126 21 -668 -5 -863 -21 -163 -100 -948 -100 -1001 0
-18 -4 -33 -9 -33 -11 0 -113 218 -142 305 -22 66 -24 86 -26 325 -1 140 -2
284 -3 320 -1 36 12 191 29 345 16 154 39 377 51 495 12 118 32 303 45 410 34
276 77 905 74 1101 l-1 74 -23 -70 c-16 -50 -34 -172 -64 -435 -23 -201 -44
-371 -46 -378 -3 -8 -12 -75 -20 -150 -9 -91 -21 -153 -35 -185 -23 -51 -81
-455 -140 -972 -16 -148 -42 -348 -57 -444 -23 -152 -25 -183 -15 -240 9 -55
16 -70 44 -93 l33 -27 -46 -46 c-47 -46 -54 -61 -79 -187 -8 -43 -8 -62 0 -78
10 -18 8 -24 -9 -37 -12 -8 -21 -24 -21 -37 0 -12 -6 -31 -14 -41 -12 -17 -14
-16 -24 16 -26 81 -44 318 -52 689 -16 692 -41 899 -160 1345 -66 243 -87 344
-101 480 -11 103 -7 185 9 185 4 0 34 -39 67 -87 67 -97 222 -264 284 -308 36
-24 56 -29 143 -37 83 -7 105 -6 116 6 16 16 79 426 141 911 21 166 42 308 46
316 6 9 12 1 20 -27 9 -33 12 3 19 224 7 243 14 320 28 296 3 -5 2 -96 -3
-203 -5 -107 -7 -196 -6 -197 9 -10 70 412 76 521 5 104 7 68 9 -180 2 -184
-1 -347 -8 -400z m966 274 c45 -43 31 -56 -114 -103 -48 -17 -86 -35 -92 -46
-5 -10 -45 -37 -87 -60 -43 -24 -98 -54 -122 -68 l-44 -26 7 43 c10 65 31 96
92 142 31 22 54 43 51 45 -2 2 -30 -5 -62 -16 -76 -26 -89 -25 -110 7 -17 25
-17 27 1 40 22 16 109 43 138 43 23 0 56 -27 56 -47 0 -10 17 -2 50 22 63 46
92 55 159 50 38 -3 60 -10 77 -26z m-507 -94 c8 -16 16 -72 18 -124 3 -53 6
-101 8 -108 3 -8 42 10 107 49 159 95 225 108 316 62 29 -14 61 -39 72 -54
l20 -29 -42 -5 c-24 -3 -88 -11 -143 -17 -55 -7 -124 -20 -152 -30 -59 -20
-172 -91 -155 -97 6 -2 35 1 66 7 55 10 131 3 206 -19 19 -6 83 -13 142 -17
80 -4 108 -10 113 -21 6 -16 -26 -14 -269 14 -149 18 -178 15 -235 -26 -34
-25 -41 -36 -41 -64 l0 -34 62 18 c83 26 208 44 219 33 6 -6 2 -20 -10 -35
-16 -20 -33 -27 -78 -32 -78 -9 -199 -45 -216 -65 -11 -12 -18 -75 -26 -246
-6 -126 -11 -241 -12 -255 0 -23 -1 -23 -9 -5 -13 33 -29 186 -40 390 -6 107
-19 227 -30 275 -40 184 -55 348 -35 381 13 20 108 90 119 86 6 -2 17 -16 25
-32z m1821 -350 c32 -17 41 -36 76 -170 14 -55 31 -109 37 -120 5 -11 9 -66 8
-125 -3 -175 27 -443 75 -660 24 -106 37 -154 107 -392 14 -47 49 -196 77
-330 61 -286 99 -420 253 -903 64 -198 132 -413 152 -477 44 -144 99 -256 160
-325 25 -28 45 -58 45 -66 0 -38 -147 -98 -247 -101 -76 -2 -77 0 -153 387
-89 447 -142 605 -242 723 -52 61 -132 128 -136 114 -2 -5 12 -49 31 -97 47
-120 89 -289 132 -533 78 -440 70 -420 228 -573 108 -104 108 -105 4 -76 -42
12 -50 11 -78 -5 -24 -14 -80 -23 -232 -37 -111 -10 -207 -14 -215 -10 -29 16
19 34 110 40 l91 6 -63 85 c-34 47 -97 119 -139 160 l-77 75 -37 290 c-21 160
-65 450 -98 645 -70 416 -86 545 -94 775 -6 155 -17 263 -32 301 -3 9 2 14 15
14 22 0 32 18 32 55 0 49 18 32 29 -28 24 -126 111 -447 132 -489 25 -49 161
-188 184 -188 19 0 19 -6 -9 76 -58 170 -106 450 -141 824 -9 87 -25 207 -36
267 -40 214 -50 320 -56 607 l-6 289 42 -7 c24 -4 55 -13 71 -21z m-3424 -240
c8 -20 -55 -103 -84 -111 -17 -5 -30 0 -45 15 l-21 21 48 45 c50 46 91 58 102
30z m-157 -183 c5 -9 16 -43 24 -74 13 -50 13 -59 0 -77 -19 -28 -46 -14 -73
39 -22 43 -25 81 -10 111 13 24 46 25 59 1z m2569 -9 c19 -37 20 -131 12
-1043 -7 -715 -12 -969 -24 -1080 -25 -241 -30 -386 -16 -490 7 -52 12 -102
12 -110 -1 -8 -3 -51 -5 -95 -2 -44 -10 -101 -17 -127 -12 -41 -12 -53 4 -106
15 -50 16 -63 5 -83 -7 -13 -22 -58 -34 -99 l-21 -75 -44 0 -45 0 2 135 c2 74
10 272 19 440 17 318 17 337 -16 770 -23 302 -20 281 -100 600 -33 131 -60
246 -60 255 0 14 3 14 30 0 16 -8 36 -28 44 -43 14 -28 139 -550 152 -637 l8
-50 8 55 c5 30 11 395 14 810 2 415 5 771 6 790 1 19 -2 65 -6 102 -9 66 -8
66 20 82 37 20 41 20 52 -1z m-785 -503 c53 -192 57 -267 23 -401 -13 -52 -27
-111 -30 -131 -4 -21 -12 -38 -18 -38 -12 0 -7 32 29 180 30 126 28 181 -17
353 -16 64 -30 124 -30 133 0 37 18 -3 43 -96z m1229 -615 c-2 -180 2 -340 12
-447 8 -95 10 -184 6 -208 -4 -24 -4 -57 1 -74 20 -68 29 -155 20 -199 -5 -31
-4 -63 4 -99 19 -79 39 -646 26 -733 -6 -38 -11 -101 -11 -138 0 -79 -11 -107
-43 -107 -13 0 -52 -16 -89 -35 -108 -58 -122 -38 -107 158 9 130 38 298 62
367 9 26 12 217 12 755 0 702 1 723 22 825 12 58 25 141 28 185 10 120 14 129
39 75 20 -43 21 -59 18 -325z m-1986 -2130 c14 -35 -49 -145 -82 -145 -8 0
-17 13 -21 30 -3 17 -16 40 -29 53 -41 38 -32 52 38 66 66 13 88 12 94 -4z
m-236 -45 c18 -11 8 -15 -55 -24 l-40 -5 24 19 c25 22 48 25 71 10z m1362 -42
c54 -38 48 -84 -11 -73 -96 17 -120 17 -155 0 -42 -20 -66 -14 -66 15 0 15 12
26 43 39 128 54 138 55 189 19z m-597 -20 c39 -18 32 -51 -19 -92 -23 -20 -49
-36 -55 -36 -17 0 -98 59 -105 75 -17 45 113 83 179 53z m-241 -37 c10 -16
-54 -61 -85 -61 -37 0 -37 9 3 42 33 27 72 36 82 19z m1991 -91 c3 -5 2 -17
-3 -26 -7 -12 -3 -27 14 -52 24 -35 32 -86 14 -97 -5 -3 -25 19 -44 49 -42 66
-59 76 -126 76 -44 0 -51 3 -48 18 5 28 178 57 193 32z m935 -1 c36 -5 72 -17
80 -25 13 -14 13 -17 -5 -30 -49 -36 -111 -74 -121 -74 -6 0 -35 25 -64 56
l-53 56 24 14 c29 16 55 17 139 3z m-437 -58 c91 -25 121 -53 98 -90 -8 -12
-18 -12 -69 3 -71 19 -89 14 -100 -28 -6 -21 -14 -31 -28 -31 -15 0 -20 8 -22
42 -4 59 14 123 36 123 10 0 48 -8 85 -19z m-587 -156 c14 -21 15 -31 5 -51
-17 -38 -36 -24 -39 29 -3 53 9 60 34 22z m695 15 c22 -12 25 -53 8 -115 l-11
-39 -14 24 c-7 14 -13 41 -14 61 0 44 -7 51 -33 38 -15 -8 -22 -8 -28 2 -19
30 50 51 92 29z"/>
<path d="M4391 6138 c-30 -18 -49 -34 -43 -36 15 -5 63 21 86 47 24 27 22 26
-43 -11z"/>
<path d="M3311 4333 c-1 -57 0 -61 19 -56 22 6 22 9 -6 83 l-13 35 0 -62z"/>
<path d="M3277 3879 c-16 -144 -27 -263 -25 -265 8 -8 66 488 60 507 -4 11
-19 -93 -35 -242z"/>
<path d="M4220 8063 c0 -3 9 -17 21 -31 15 -20 28 -26 50 -24 17 2 42 -4 57
-14 l27 -17 -24 27 c-14 14 -32 26 -41 26 -9 0 -32 9 -53 19 -20 10 -37 17
-37 14z"/>
<path d="M3905 8021 c-11 -37 -27 -41 -96 -24 -57 13 -70 14 -95 2 -40 -20
-41 -73 -2 -102 24 -18 31 -19 72 -7 25 7 69 27 97 46 29 18 71 36 95 40 37 5
143 -4 254 -23 26 -4 32 -3 24 6 -11 12 -289 81 -325 81 -10 0 -20 -9 -24 -19z"/>
<path d="M4394 7962 c7 -11 211 -142 222 -142 23 0 -79 69 -220 148 -5 3 -6 0
-2 -6z"/>
<path d="M3521 7921 c-13 -8 -163 -307 -187 -373 -7 -21 -9 -38 -5 -38 12 0
305 308 309 324 1 6 -17 27 -40 47 -56 46 -62 49 -77 40z"/>
<path d="M3812 7881 c-89 -36 -102 -46 -102 -80 0 -44 28 -126 50 -146 18 -16
18 -20 4 -46 -13 -27 -13 -32 12 -81 15 -29 32 -56 38 -60 6 -4 30 -4 53 -1
48 6 52 2 22 -26 -28 -26 -16 -45 25 -37 27 5 28 4 11 -6 -11 -6 -22 -12 -24
-14 -7 -6 21 -34 29 -29 4 3 35 11 69 19 l61 14 20 -39 c23 -45 46 -59 93 -59
27 0 36 5 41 23 3 14 0 26 -9 33 -13 10 -13 13 3 27 32 29 72 37 185 37 128 0
158 6 150 26 -18 49 -138 60 -258 25 -75 -23 -103 -25 -123 -13 -22 15 -3 44
25 37 27 -6 233 34 233 46 0 16 -72 21 -157 11 -61 -7 -92 -7 -100 0 -20 16
-16 73 7 93 31 28 168 17 239 -19 57 -29 75 -28 47 3 -27 30 -114 63 -180 68
-110 8 -123 15 -89 49 15 14 30 16 103 11 l85 -6 -34 21 c-23 15 -56 24 -97
26 -51 4 -61 7 -57 19 5 13 21 15 95 10 48 -3 88 -4 88 -2 0 2 -17 9 -37 15
-21 7 -73 26 -117 43 -94 37 -100 33 -110 -66 -14 -127 -23 -137 -129 -137
-71 0 -109 18 -131 64 -30 64 -19 99 46 132 24 12 27 18 17 30 -15 18 -11 18
-97 -15z m-22 -118 c0 -29 6 -53 17 -65 23 -25 7 -36 -18 -12 -32 32 -39 124
-9 124 5 0 10 -21 10 -47z m290 -202 c0 -27 -3 -63 -6 -80 -6 -31 -7 -31 -66
-31 -53 0 -63 3 -87 29 -15 16 -40 31 -57 33 -25 3 -29 8 -32 37 -5 45 9 57
42 36 27 -18 45 -17 111 9 22 8 52 15 68 16 26 0 27 -2 27 -49z"/>
<path d="M5324 7838 c-17 -6 -44 -21 -60 -34 -27 -22 -23 -21 41 7 39 17 72
33 74 35 7 7 -23 2 -55 -8z"/>
<path d="M4701 7529 c-13 -39 -14 -148 -1 -169 13 -21 17 -3 25 108 6 95 -4
119 -24 61z"/>
<path d="M3055 7161 c3 -5 24 -24 48 -42 l42 -33 -40 42 c-35 38 -66 57 -50
33z"/>
<path d="M4725 7123 l-28 -38 34 32 c18 18 30 35 27 38 -3 3 -18 -11 -33 -32z"/>
<path d="M4759 7113 l-34 -36 38 28 c20 15 37 31 37 36 0 14 -4 11 -41 -28z"/>
<path d="M4911 6864 c0 -11 3 -14 6 -6 3 7 2 16 -1 19 -3 4 -6 -2 -5 -13z"/>
<path d="M4920 6826 c0 -8 4 -17 9 -20 5 -4 7 3 4 14 -6 23 -13 26 -13 6z"/>
<path d="M6345 5677 c-4 -46 -5 -92 -3 -103 3 -10 8 25 12 79 5 54 6 100 3
103 -3 3 -8 -32 -12 -79z"/>
</g>
</svg>
